<?xml version="1.0" standalone="no"?>
<!DOCTYPE svg PUBLIC "-//W3C//DTD SVG 1.1//EN" "http://www.w3.org/Graphics/SVG/1.1/DTD/svg11.dtd" >
<svg xmlns="http://www.w3.org/2000/svg">
<metadata>
This is a custom SVG webfont generated by Font Squirrel.
Copyright   : Copyright c 2010 by joakin All rights reserved P1X3L 5QUAR3 remix
Designer    : joakin245hotmailcom
Foundry     : joakin
</metadata>
<defs>
<font id="PixelSquareRegular" horiz-adv-x="1433" >
<font-face units-per-em="2048" ascent="1638" descent="-410" />
<missing-glyph horiz-adv-x="1024" />
<glyph unicode=" "  horiz-adv-x="1024" />
<glyph unicode="&#x09;" horiz-adv-x="1024" />
<glyph unicode="&#xa0;" horiz-adv-x="1024" />
<glyph unicode="!" horiz-adv-x="614" d="M0 0v205h205v-205h-205zM0 410v1024h205v-1024h-205z" />
<glyph unicode="&#x22;" horiz-adv-x="1024" d="M0 1024v410h205v-410h-205zM410 1024v410h204v-410h-204z" />
<glyph unicode="#" d="M0 205v205h205v204h-205v205h205v205h205v-205h204v205h205v-205h205v-205h-205v-204h205v-205h-205v-205h-205v205h-204v-205h-205v205h-205zM410 410h204v204h-204v-204z" />
<glyph unicode="$" d="M0 0h410v410h-410v819h410v205h204v-205h410v-205h-410v-410h410v-819h-410v-205h-204v205h-410v205zM205 614h205v410h-205v-410zM614 0h205v410h-205v-410z" />
<glyph unicode="%" horiz-adv-x="1843" d="M0 0v205h205v205h205v204h204v205h205v205h205v205h205v205h205v-205h-205v-205h-205v-205h-205v-205h-205v-204h-204v-205h-205v-205h-205zM0 1024v205h205v205h205v-205h204v-205h-204v-205h-205v205h-205zM215 1034h184v185h-184v-185zM819 205v205h205v204h205v-204 h205v-205h-205v-205h-205v205h-205zM1034 215h185v184h-185v-184z" />
<glyph unicode="&#x26;" horiz-adv-x="1638" d="M0 0v1434h819v-820h-614v-409h819v205h205v-410h-1229zM205 819h409v410h-409v-410z" />
<glyph unicode="'" horiz-adv-x="614" d="M0 1024v410h205v-410h-205z" />
<glyph unicode="(" horiz-adv-x="1024" d="M0 205v614h205v410h205v205h204v-205h-204v-410h-205v-614h205v-410h204v-205h-204v205h-205v410h-205z" />
<glyph unicode=")" horiz-adv-x="1024" d="M0 -205h205v410h205v614h-205v410h-205v205h205v-205h205v-410h204v-614h-204v-410h-205v-205h-205v205z" />
<glyph unicode="*" d="M0 410v204h205v205h205v205h-205v205h-205v205h205v-205h205v205h204v-205h205v205h205v-205h-205v-205h-205v-205h205v-205h205v-204h-205v204h-205v-204h-204v204h-205v-204h-205z" />
<glyph unicode="+" d="M0 614v205h410v410h204v-410h410v-205h-410v-409h-204v409h-410z" />
<glyph unicode="," horiz-adv-x="819" d="M0 0v410h410v-615h-205v205h-205z" />
<glyph unicode="-" horiz-adv-x="1024" d="M0 614v205h614v-205h-614z" />
<glyph unicode="." horiz-adv-x="819" d="M0 0v410h410v-410h-410z" />
<glyph unicode="/" horiz-adv-x="1843" d="M0 0v205h205v205h205v204h204v205h205v205h205v205h205v205h205v-205h-205v-205h-205v-205h-205v-205h-205v-204h-204v-205h-205v-205h-205z" />
<glyph unicode="0" d="M0 0v1434h1024v-1434h-1024zM205 205h614v608h-198v-209h-205v-194h-211v-205zM205 618h196v207h205v199h213v205h-614v-611z" />
<glyph unicode="1" horiz-adv-x="1024" d="M0 0v205h205v1024h-205v205h410v-1229h204v-205h-614z" />
<glyph unicode="2" d="M0 0v819h819v410h-819v205h1024v-820h-819v-409h819v-205h-1024z" />
<glyph unicode="3" d="M0 0v205h819v409h-614v205h614v410h-819v205h1024v-1434h-1024z" />
<glyph unicode="4" d="M0 614v820h205v-615h614v615h205v-1434h-205v614h-819z" />
<glyph unicode="5" d="M0 0v205h819v409h-819v820h205v-615h819v-819h-1024zM614 1229v205h410v-205h-410z" />
<glyph unicode="6" d="M0 0v1434h1024v-205h-819v-410h819v-819h-1024zM205 205h614v409h-614v-409z" />
<glyph unicode="7" d="M0 1229v205h1024v-615h-205v-205h-205v-614h-204v614h204v205h205v410h-819z" />
<glyph unicode="8" d="M0 0v614h205v205h-205v615h1024v-615h-205v-205h205v-614h-1024zM215 209h596v391h-596v-391zM215 840h596v389h-596v-389z" />
<glyph unicode="9" d="M0 0v205h819v409h-819v820h1024v-1434h-1024zM205 819h614v410h-614v-410z" />
<glyph unicode=":" horiz-adv-x="819" d="M0 0v410h410v-410h-410zM0 614v410h410v-410h-410z" />
<glyph unicode=";" horiz-adv-x="819" d="M0 0v410h410v-615h-205v205h-205zM0 614v410h410v-410h-410z" />
<glyph unicode="&#x37e;" horiz-adv-x="819" d="M0 0v410h410v-615h-205v205h-205zM0 614v410h410v-410h-410z" />
<glyph unicode="&#x3c;" horiz-adv-x="1024" d="M0 410v204h205v205h205v205h204v-205h-204v-205h-205v-204h205v-205h204v-205h-204v205h-205v205h-205z" />
<glyph unicode="=" d="M0 410v204h1024v-204h-1024zM0 819v205h1024v-205h-1024z" />
<glyph unicode="&#x3e;" horiz-adv-x="1024" d="M0 0v205h205v205h205v204h-205v205h-205v205h205v-205h205v-205h204v-204h-204v-205h-205v-205h-205z" />
<glyph unicode="?" d="M0 1229v205h1024v-615h-410v-409h-204v614h409v205h-819zM410 0v205h204v-205h-204z" />
<glyph unicode="@" horiz-adv-x="2048" d="M0 -410v1844h1638v-1434h-1228v614h614v205h-614v205h819v-819h205v1024h-1229v-1434h1024v-205h-1229zM614 205h410v205h-410v-205z" />
<glyph unicode="A" d="M0 0v1229h205v205h614v-205h205v-1229h-205v614h-614l2 -614h-207zM207 819h610v408h-610v-408z" />
<glyph unicode="B" d="M0 0v1434h819v-615h205v-819h-1024zM205 205h614v407l-614 2v-409zM205 819h409v410h-409v-410z" />
<glyph unicode="C" d="M0 0v1434h1024v-205h-819v-1024h819v-205h-1024z" />
<glyph unicode="D" d="M0 0v1434h819v-205h205v-1024h-205v-205h-819zM205 211h614v1012h-614v-1012z" />
<glyph unicode="E" d="M0 0v1434h1024v-205h-819v-410h614v-205h-614v-409h819v-205h-1024z" />
<glyph unicode="F" d="M0 0v1434h1024v-205h-819v-410h409v-205h-409v-614h-205z" />
<glyph unicode="G" d="M0 0v1434h819v-205h-614v-1024h614v614h205v-819h-1024z" />
<glyph unicode="H" d="M0 0v1434h205v-615h614v615h205v-1434h-205v614h-614v-614h-205z" />
<glyph unicode="I" horiz-adv-x="1024" d="M0 0v205h205v1024h-205v205h614v-205h-204v-1024h204v-205h-614z" />
<glyph unicode="J" horiz-adv-x="1024" d="M0 0v410h205v-205h205v1024h-205v205h409v-1434h-614z" />
<glyph unicode="K" d="M0 0v1434h205v-410h205v410h204v-410h410v-1024h-205v819h-614v-819h-205z" />
<glyph unicode="L" d="M0 0v1434h205v-1229h819v-205h-1024z" />
<glyph unicode="M" d="M0 0v1434h410v-205h204v205h410v-1434h-205v1229h-205v-205h-204v205h-205v-1229h-205z" />
<glyph unicode="N" d="M0 0v1434h205v-205h205v-205h204v-205h205v615h205v-1434h-205v614h-205v205h-204v205h-205v-1024h-205z" />
<glyph unicode="O" d="M0 0v1434h1024v-1434h-1024zM205 205h614v1024h-614v-1024z" />
<glyph unicode="P" d="M0 0v1434h1024v-820h-819v-614h-205zM205 819h614v410h-614v-410z" />
<glyph unicode="Q" d="M0 0v1434h819v-1229h205v-205h-1024zM205 205h409v1024h-409v-1024z" />
<glyph unicode="R" d="M0 0v1434h819v-615h205v-819h-205v649h-614v-649h-205zM205 854h409v375h-409v-375z" />
<glyph unicode="S" d="M0 0v205h819v409h-819v820h1024v-205h-819v-410h819v-819h-1024z" />
<glyph unicode="T" d="M0 1229v205h1024v-205h-410v-1229h-204v1229h-410z" />
<glyph unicode="U" d="M0 0v1434h205v-1229h614v1229h205v-1434h-1024z" />
<glyph unicode="V" d="M0 614v820h205v-820h205v-409h204v409h205v820h205v-820h-205v-409h-205v-205h-204v205h-205v409h-205z" />
<glyph unicode="W" horiz-adv-x="1843" d="M0 205v1229h205v-1229h409v614h205v-614h410v1229h205v-1229h-205v-205h-410v205h-205v-205h-409v205h-205z" />
<glyph unicode="X" d="M0 0v614h205v205h-205v615h205v-615h614v615h205v-615h-205v-205h205v-614h-205v614h-614v-614h-205z" />
<glyph unicode="Y" d="M0 614v820h205v-615h614v615h205v-820h-410v-614h-204v614h-410z" />
<glyph unicode="Z" d="M0 0v410h205v204h205v205h204v205h205v205h-819v205h1024v-410h-205v-205h-205v-205h-204v-204h-205v-205h819v-205h-1024z" />
<glyph unicode="[" horiz-adv-x="819" d="M0 -410v1844h410v-205h-205v-1434h205v-205h-410z" />
<glyph unicode="\" horiz-adv-x="1843" d="M0 1229v205h205v-205h205v-205h204v-205h205v-205h205v-204h205v-205h205v-205h-205v205h-205v205h-205v204h-205v205h-204v205h-205v205h-205z" />
<glyph unicode="]" horiz-adv-x="819" d="M0 -205h205v1434h-205v205h410v-1844h-410v205z" />
<glyph unicode="^" d="M0 819v205h205v205h205v205h204v-205h205v-205h205v-205h-205v205h-205v205h-204v-205h-205v-205h-205z" />
<glyph unicode="_" d="M0 -205h1024v-205h-1024v205z" />
<glyph unicode="`" horiz-adv-x="817" d="M0 1229v205h205v-205h205v-205h-205v205h-205z" />
<glyph unicode="a" d="M0 0v614h819v205h-819v205h1024v-1024h-1024zM205 205h614v205h-614v-205z" />
<glyph unicode="b" d="M0 0v1434h205v-410h819v-1024h-1024zM205 205h614v612l-614 2v-614z" />
<glyph unicode="c" d="M0 0v1024h1024v-205h-819v-614h819v-205h-1024z" />
<glyph unicode="d" d="M0 0v1024h819v410h205v-1434h-1024zM205 205h614v612l-614 2v-614z" />
<glyph unicode="e" d="M0 0v1024h1024v-614h-819v-205h819v-205h-1024zM205 614h614v203l-614 2v-205z" />
<glyph unicode="f" horiz-adv-x="1024" d="M0 0v1434h614v-205h-409v-205h409v-205h-409v-819h-205z" />
<glyph unicode="g" d="M0 0v1024h1024v-1434h-1024v205h819v205h-819zM205 205h614v612l-614 2v-614z" />
<glyph unicode="h" d="M0 0v1434h205v-410h819v-1024h-205v819h-614v-819h-205z" />
<glyph unicode="i" horiz-adv-x="614" d="M0 0h205v1024h-205v-1024zM0 1229v205h205v-205h-205z" />
<glyph unicode="j" horiz-adv-x="819" d="M-205 -205h410v1229h205v-1434h-615v205zM205 1229v205h205v-205h-205z" />
<glyph unicode="k" d="M0 0v1434h205v-820h205v410h204v-410h410v-614h-205v410h-614v-410h-205z" />
<glyph unicode="l" horiz-adv-x="614" d="M0 0v1434h205v-1434h-205z" />
<glyph unicode="m" horiz-adv-x="1843" d="M0 0v1024h1434v-1024h-205v819h-410v-819h-205v819h-409v-819h-205z" />
<glyph unicode="n" d="M0 0v1024h1024v-1024h-205v819h-614v-819h-205z" />
<glyph unicode="o" d="M0 0v1024h1024v-1024h-1024zM205 205h614v612l-614 2v-614z" />
<glyph unicode="p" d="M0 -410v1434h1024v-1024h-819v-410h-205zM205 205h614v614h-614v-614z" />
<glyph unicode="q" d="M0 0v1024h1024v-1434h-205v410h-819zM205 205h614v614h-614v-614z" />
<glyph unicode="r" horiz-adv-x="1024" d="M0 0v1024h614v-410h-204v205h-205v-819h-205z" />
<glyph unicode="s" d="M0 0v205h819v205h-819v614h1024v-205h-819v-205h819v-614h-1024z" />
<glyph unicode="t" horiz-adv-x="1024" d="M0 819v205h205v410h205v-410h204v-205h-204v-614h204v-205h-409v819h-205z" />
<glyph unicode="u" d="M0 0v1024h205v-819h614v819h205v-1024h-1024z" />
<glyph unicode="v" d="M0 410v614h205v-614h205v-205h204v205h205v614h205v-614h-205v-205h-205v-205h-204v205h-205v205h-205z" />
<glyph unicode="w" horiz-adv-x="1843" d="M0 205v819h205v-819h409v409h205v-409h410v819h205v-819h-205v-205h-410v205h-205v-205h-409v205h-205z" />
<glyph unicode="x" d="M0 0v410h205v204h-205v410h205v-410h614v410h205v-410h-205v-204h205v-410h-205v410h-614v-410h-205z" />
<glyph unicode="y" d="M0 0v1024h205v-819h614v819h205v-1434h-1024v205h819v205h-819z" />
<glyph unicode="z" d="M0 0v205h205v205h205v204h204v205h-614v205h1024v-205h-205v-205h-205v-204h-204v-205h614v-205h-1024z" />
<glyph unicode="{" horiz-adv-x="1024" d="M0 410v204h205v615h205v205h204v-205h-204v-615h-205v-204h205v-615h204v-205h-204v205h-205v615h-205z" />
<glyph unicode="|" horiz-adv-x="614" d="M0 -410v1844h205v-1844h-205z" />
<glyph unicode="}" horiz-adv-x="1024" d="M0 -205h205v615h205v204h-205v615h-205v205h205v-205h205v-615h204v-204h-204v-615h-205v-205h-205v205z" />
<glyph unicode="~" horiz-adv-x="1638" d="M0 410v204h205v205h409v-205h410v205h205v-205h-205v-204h-410v204h-409v-204h-205z" />
<glyph unicode="&#xa1;" horiz-adv-x="614" d="M0 -410v1024h205v-1024h-205zM0 819v205h205v-205h-205z" />
<glyph unicode="&#xa2;" horiz-adv-x="1843" d="M0 0h205v1024h1024v205h205v-410h-410v-211h-205v-205h-205v-198h820v-205h-1229v-205h-205v205zM410 416h204v205h205v198h-409v-403z" />
<glyph unicode="&#xa3;" horiz-adv-x="1024" d="M0 0v205h205v409h-205v205h205v615h409v-205h-204v-410h204v-205h-204v-409h614v-205h-1024z" />
<glyph unicode="&#xa5;" d="M0 205v205h410v204h-410v820h205v-615h614v615h205v-820h-410v-204h410v-205h-410v-205h-204v205h-410z" />
<glyph unicode="&#xa6;" horiz-adv-x="614" d="M0 205h205v-615h-205v615zM0 819v615h205v-615h-205z" />
<glyph unicode="&#xa7;" d="M0 0h205v-205h614v410h-819v1229h1024v-410h-205v205h-614v-410h819v-1229h-1024v410zM205 410h614v204h-614v-204z" />
<glyph unicode="&#xa8;" horiz-adv-x="1024" d="M0 1229v205h205v-205h-205zM410 1229v205h204v-205h-204z" />
<glyph unicode="&#xa9;" horiz-adv-x="1843" d="M0 0v1434h1434v-1434h-1434zM205 205h1024v1024h-1024v-1024zM410 410v614h614v-205h-410v-205h410v-204h-614z" />
<glyph unicode="&#xaa;" horiz-adv-x="1024" d="M0 410v614h410v205h-410v205h614v-1024h-614zM205 614h205v205h-205v-205z" />
<glyph unicode="&#xab;" horiz-adv-x="1638" d="M0 410v204h205v205h205v205h204v-205h-204v-205h-205v-204h205v-205h204v-205h-204v205h-205v205h-205zM614 410v204h205v205h205v205h205v-205h-205v-205h-205v-204h205v-205h205v-205h-205v205h-205v205h-205z" />
<glyph unicode="&#xac;" d="M0 614v205h1024v-614h-205v409h-819z" />
<glyph unicode="&#xad;" horiz-adv-x="1024" d="M0 614v205h614v-205h-614z" />
<glyph unicode="&#xae;" horiz-adv-x="1843" d="M0 0v1434h1434v-1434h-1434zM205 205h1024v1024h-1024v-1024zM614 410v614h410v-205h-205v-409h-205z" />
<glyph unicode="&#xaf;" d="M0 1229v205h1024v-205h-1024z" />
<glyph unicode="&#x2c9;" d="M0 1229v205h1024v-205h-1024z" />
<glyph unicode="&#xb0;" horiz-adv-x="1228" d="M0 614v820h819v-820h-819zM205 819h409v410h-409v-410z" />
<glyph unicode="&#xb1;" d="M0 0v205h1024v-205h-1024zM0 819v205h410v410h204v-410h410v-205h-410v-409h-204v409h-410z" />
<glyph unicode="&#xb2;" horiz-adv-x="1024" d="M0 410v614h410v205h-410v205h614v-615h-409v-205h409v-204h-614z" />
<glyph unicode="&#xb3;" horiz-adv-x="1024" d="M0 410v204h410v205h-205v205h205v205h-410v205h614v-1024h-614z" />
<glyph unicode="&#xb4;" horiz-adv-x="819" d="M0 1024v205h205v205h205v-205h-205v-205h-205z" />
<glyph unicode="&#xb5;" d="M0 -410v1434h205v-819h614v819h205v-1024h-819v-410h-205z" />
<glyph unicode="&#x3bc;" d="M0 -410v1434h205v-819h614v819h205v-1024h-819v-410h-205z" />
<glyph unicode="&#xb6;" d="M0 614v820h1024v-1844h-205v1639h-205v-1639h-204v1024h-410z" />
<glyph unicode="&#xb7;" horiz-adv-x="819" d="M0 410v409h410v-409h-410z" />
<glyph unicode="&#x2219;" horiz-adv-x="819" d="M0 410v409h410v-409h-410z" />
<glyph unicode="&#xb8;" d="M205 -205h409v205h205v-410h-614v205z" />
<glyph unicode="&#xb9;" horiz-adv-x="1024" d="M0 410v204h205v615h-205v205h410v-820h204v-204h-614z" />
<glyph unicode="&#xba;" horiz-adv-x="1024" d="M0 410v1024h614v-1024h-614zM205 614h205v613l-205 2v-615z" />
<glyph unicode="&#xbb;" horiz-adv-x="1638" d="M0 0v205h205v205h205v204h-205v205h-205v205h205v-205h205v-205h204v-204h-204v-205h-205v-205h-205zM614 0v205h205v205h205v204h-205v205h-205v205h205v-205h205v-205h205v-204h-205v-205h-205v-205h-205z" />
<glyph unicode="&#xbc;" horiz-adv-x="2457" d="M0 0v205h205v205h205v204h204v205h205v205h205v205h205v205h205v-205h-205v-205h-205v-205h-205v-205h-205v-204h-204v-205h-205v-205h-205zM205 819v615h205v-615h-205zM1024 0v614h205v-614h-205zM1434 205v409h204v-409h205v409h205v-409h-205v-205h-205v205h-204z " />
<glyph unicode="&#xbd;" horiz-adv-x="2048" d="M0 0v205h205v205h205v204h204v205h205v205h205v205h205v205h205v-205h-205v-205h-205v-205h-205v-205h-205v-204h-204v-205h-205v-205h-205zM205 819v615h205v-615h-205zM1024 0v614h205v-614h-205zM1434 0v614h204v-614h-204z" />
<glyph unicode="&#xbe;" horiz-adv-x="3072" d="M0 819v615h205v-615h-205zM410 819v615h204v-615h-204zM614 0v205h205v205h205v204h205v205h205v205h204v205h205v205h205v-205h-205v-205h-205v-205h-204v-205h-205v-204h-205v-205h-205v-205h-205zM819 819v615h205v-615h-205zM1638 0v614h205v-614h-205zM2048 205v409 h205v-409h205v409h204v-409h-204v-205h-205v205h-205z" />
<glyph unicode="&#xbf;" d="M0 205v-615h1024v205h-819v205h409v614h-204v-409h-410zM410 819v205h204v-205h-204z" />
<glyph unicode="&#xc0;" d="M0 0v819h205v205h205v205h-203v205h203v-205h204v-205h205v-205h205v-819h-205v410h-614v-410h-205zM207 614h610v203h-610v-203z" />
<glyph unicode="&#xc1;" d="M0 0v819h205l2 615h407v-205h-204v-205h409v-205h205v-819h-205v410h-614v-410h-205zM207 614h610v203h-610v-203z" />
<glyph unicode="&#xc2;" d="M0 0v819h205v410h205v205h204v-205h205v-410h205v-819h-205v410h-614v-410h-205zM207 614h610v203h-610v-203zM410 1022h204v205h-204v-205z" />
<glyph unicode="&#xc3;" d="M0 0v819h205l2 408h203v207h204v-205h203v205h207v-205h-207l2 -410h205v-819h-205v410h-614v-410h-205zM207 614h610v203h-610v-203zM410 1022h204v205h-204v-205z" />
<glyph unicode="&#xc4;" d="M0 0v819h205v205h614v-205h205v-819h-205v410h-614v-410h-205zM205 1229v205h205v-205h-205zM207 614h610v203h-610v-203zM614 1229v205h205v-205h-205z" />
<glyph unicode="&#xc5;" d="M0 0v819h205v615h614v-615h205v-819h-205v410h-614v-410h-205zM207 614h610v203h-610v-203zM410 1022h204v205h-204v-205z" />
<glyph unicode="&#xc6;" horiz-adv-x="1843" d="M0 0v1229h205v205h1229v-207h-615v-408h410v-205h-410v-409h615v-205h-820v614h-409v-614h-205zM207 819h405l2 408h-407v-408z" />
<glyph unicode="&#xc7;" d="M0 0v1434h1024v-205h-819v-1024h819v-205h-410v-410h-409v205h205v205h-410z" />
<glyph unicode="&#xc8;" d="M0 0v1024h410v205h-205v205h205v-205h204v-205h410v-205h-819v-205h614v-204h-614v-205h819v-205h-1024z" />
<glyph unicode="&#xc9;" d="M0 0v1024h410v205h204v205h205v-205h-205v-205h410v-205h-819v-205h614v-204h-614v-205h819v-205h-1024z" />
<glyph unicode="&#xca;" d="M0 0v1024h205v205h205v205h204v-205h205v-205h205v-205h-819v-205h614v-204h-614v-205h819v-205h-1024zM410 1022h204v205h-204v-205z" />
<glyph unicode="&#xcb;" d="M0 0v1024h1024v-205h-819v-205h614v-204h-614v-205h819v-205h-1024zM205 1229v205h205v-205h-205zM614 1229v205h205v-205h-205z" />
<glyph unicode="&#xcc;" horiz-adv-x="1024" d="M0 0v205h205v614h-205v205h205v205h-205v205h205v-205h205v-205h204v-205h-204v-614h204v-205h-614z" />
<glyph unicode="&#xcd;" horiz-adv-x="1024" d="M0 0v205h205v614h-205v205h205v205h205v205h204v-205h-204v-205h204v-205h-204v-614h204v-205h-614z" />
<glyph unicode="&#xce;" horiz-adv-x="1024" d="M0 0v205h205v614h-205v410h205v205h205v-205h204v-410h-204v-614h204v-205h-614zM205 1024h205v205h-205v-205z" />
<glyph unicode="&#xcf;" horiz-adv-x="1024" d="M0 0v205h205v614h-205v205h614v-205h-204v-614h204v-205h-614zM0 1229v205h205v-205h-205zM410 1229v205h204v-205h-204z" />
<glyph unicode="&#xd0;" horiz-adv-x="1638" d="M0 0v1434h1024v-205h205v-1024h-205v-205h-1024zM205 205h819v1024h-819v-410h409v-205h-409v-409z" />
<glyph unicode="&#xd1;" d="M0 0v1024h205v205h205v205h204v-205h205v205h205v-205h-205v-205h205v-1024h-205v205h-205v205h-204v204h-205v-614h-205zM205 819h205v-205h204v-204h205v614h-205v205h-204v-205h-205v-205z" />
<glyph unicode="&#xd2;" d="M0 0v1024h410v205h-205v205h205v-205h204v-205h410v-1024h-1024zM205 205h614v612l-614 2v-614z" />
<glyph unicode="&#xd3;" d="M0 0v1024h410v205h204v205h205v-205h-205v-205h410v-1024h-1024zM205 205h614v612l-614 2v-614z" />
<glyph unicode="&#xd4;" d="M0 0v1024h205v205h205v205h204v-205h205v-205h205v-1024h-1024zM205 205h614v612l-614 2v-614zM410 1022h204v205h-204v-205z" />
<glyph unicode="&#xd5;" d="M0 0v1024h205v203h205v207h204v-205h205v205h205v-205h-205v-205h205v-1024h-1024zM205 205h614v612l-614 2v-614zM410 1022h204v205h-204v-205z" />
<glyph unicode="&#xd6;" d="M0 0v1024h1024v-1024h-1024zM205 205h614v612l-614 2v-614zM205 1229v205h205v-205h-205zM614 1229v205h205v-205h-205z" />
<glyph unicode="&#xd7;" d="M0 205v205h205v204h205v205h-205v205h-205v205h205v-205h205v-205h204v205h205v205h205v-205h-205v-205h-205v-205h205v-204h205v-205h-205v205h-205v204h-204v-204h-205v-205h-205z" />
<glyph unicode="&#xd8;" horiz-adv-x="2252" d="M0 -205h205v1229h205v205h1228v205h205v-205h-205v-1229h-204v-205h-1229v-205h-205v205zM410 205h204v205h205v204h205v205h205v205h-819v-819zM614 0h820v819h-205v-205h-205v-204h-205v-205h-205v-205z" />
<glyph unicode="&#xd9;" d="M0 0v1024h205v-819h614v819h205v-1024h-1024zM205 1229v205h205v-205h204v-205h-204v205h-205z" />
<glyph unicode="&#xda;" d="M0 0v1024h205v-819h614v819h205v-1024h-1024zM410 1024v205h204v205h205v-205h-205v-205h-204z" />
<glyph unicode="&#xdb;" d="M0 0v1024h205v-819h614v819h205v-1024h-1024zM205 1024v205h205v205h204v-205h205v-205h-205v205h-204v-205h-205z" />
<glyph unicode="&#xdc;" d="M0 0v1024h205v-819h614v819h205v-1024h-1024zM205 1229v205h205v-205h-205zM614 1229v205h205v-205h-205z" />
<glyph unicode="&#xdd;" d="M0 410v614h205v-410h614v410h205v-614h-410v-410h-204v410h-410zM410 1024v205h204v205h205v-205h-205v-205h-204z" />
<glyph unicode="&#xde;" d="M0 0v1434h205v-410h819v-614h-819v-410h-205zM205 614h614v205h-614v-205z" />
<glyph unicode="&#xdf;" d="M0 0v205h205v1229h614v-615h205v-819h-410v205h205v444h-409v-649h-410zM410 854h204v375h-204v-375z" />
<glyph unicode="&#xe0;" d="M0 0v614h819v205h-819v205h410v205h-205v205h213v-197h196v-213h410v-1024h-1024zM205 205h614v205h-614v-205z" />
<glyph unicode="&#xe1;" d="M0 0v614h819v205h-819v205h410v211h198v199h211v-213h-205v-197h410v-1024h-1024zM205 205h614v205h-614v-205z" />
<glyph unicode="&#xe2;" d="M0 0v614h819v205h-819v205h205v205h205v205h204v-205h205v-205h205v-1024h-1024zM205 205h614v205h-614v-205zM410 1022h204v205h-204v-205z" />
<glyph unicode="&#xe3;" d="M0 0v614h819v205h-819v205h205v203h205v207h204v-205h199v205h211v-205h-205v-205h205v-1024h-1024zM205 205h614v205h-614v-205zM410 1022h204v205h-204v-205z" />
<glyph unicode="&#xe4;" d="M0 0h1024v1024h-1024v-205h819v-205h-819v-614zM205 205v205h614v-205h-614zM205 1229v205h205v-205h-205zM614 1229v205h205v-205h-205z" />
<glyph unicode="&#xe5;" d="M0 0v614h819v205h-819v205h205v410h614v-410h205v-1024h-1024zM205 205h614v205h-614v-205zM410 1022h204v205h-204v-205z" />
<glyph unicode="&#xe6;" horiz-adv-x="1843" d="M0 0v614h580v205h-580v205h1434v-614h-615v-205h615v-205h-1434zM205 205h375v205h-375v-205zM819 614h410v205h-410v-205z" />
<glyph unicode="&#xe7;" d="M0 0v1024h1024v-205h-819v-614h819v-205h-410v-410h-409v205h205v205h-410z" />
<glyph unicode="&#xe8;" d="M0 0v1024h410v205h-205v205h211v-197h198v-213h410v-614h-819v-205h819v-205h-1024zM205 614h614v203l-614 2v-205z" />
<glyph unicode="&#xe9;" d="M0 0v1024h410v211h198v199h211v-205h-205v-205h410v-614h-819v-205h819v-205h-1024zM205 614h614v203l-614 2v-205z" />
<glyph unicode="&#xea;" d="M0 0v1024h205v205h205v205h204v-205h205v-205h205v-614h-819v-205h819v-205h-1024zM205 614h614v203l-614 2v-205zM410 1022h204v205h-204v-205z" />
<glyph unicode="&#xeb;" d="M0 0v1024h1024v-614h-819v-205h819v-205h-1024zM205 614h614v203l-614 2v-205zM205 1229v205h205v-205h-205zM614 1229v205h205v-205h-205z" />
<glyph unicode="&#xec;" horiz-adv-x="819" d="M0 1229v205h205v-205h205v-205h-205v205h-205zM205 0v819h205v-819h-205z" />
<glyph unicode="&#xed;" horiz-adv-x="819" d="M0 0v819h205v-819h-205zM0 1024v205h205v205h205v-205h-205v-205h-205z" />
<glyph unicode="&#xee;" horiz-adv-x="1024" d="M0 1024v205h205v205h205v-205h204v-205h-204v205h-205v-205h-205zM205 0v819h205v-819h-205z" />
<glyph unicode="&#xef;" horiz-adv-x="1024" d="M0 1229v205h205v-205h-205zM205 0v1024h205v-1024h-205zM410 1229v205h204v-205h-204z" />
<glyph unicode="&#xf0;" d="M0 0v616h614v203h-204v205h204v205h-204v205h409v-410h205v-205h-205v-819h-819zM205 205h409v205l-409 2v-207z" />
<glyph unicode="&#xf1;" d="M0 0v1024h205v203h205v207h204v-205h205v205h205v-205h-205v-205h205v-1024h-205v819h-614v-819h-205zM410 1022h204v205h-204v-205z" />
<glyph unicode="&#xf2;" d="M0 0v1024h410v205h-205v205h205v-205h204v-205h410v-1024h-1024zM205 205h614v612l-614 2v-614z" />
<glyph unicode="&#xf3;" d="M0 0v1024h410v205h204v205h205v-205h-205v-205h410v-1024h-1024zM205 205h614v612l-614 2v-614z" />
<glyph unicode="&#xf4;" d="M0 0v1024h205v205h205v205h204v-205h205v-205h205v-1024h-1024zM205 205h614v612l-614 2v-614zM410 1022h204v205h-204v-205z" />
<glyph unicode="&#xf5;" d="M0 0v1024h205v203h205v207h204v-205h205v205h205v-205h-205v-205h205v-1024h-1024zM205 205h614v612l-614 2v-614zM410 1022h204v205h-204v-205z" />
<glyph unicode="&#xf6;" d="M0 0v1024h1024v-1024h-1024zM205 205h614v612l-614 2v-614zM205 1229v205h205v-205h-205zM614 1229v205h205v-205h-205z" />
<glyph unicode="&#xf7;" d="M0 614h1024v205h-1024v-205zM410 205v205h204v-205h-204zM410 1024v205h204v-205h-204z" />
<glyph unicode="&#xf8;" horiz-adv-x="1843" d="M0 0h205v819h205v205h819v205h205v-205h-205v-819h-205v-205h-819v-205h-205v205zM410 410h204v204h205v205h-409v-409zM614 205h410v409h-205v-204h-205v-205z" />
<glyph unicode="&#xf9;" d="M0 0v1024h205v-819h614v819h205v-1024h-1024zM205 1229v205h205v-205h204v-205h-204v205h-205z" />
<glyph unicode="&#xfa;" d="M0 0v1024h205v-819h614v819h205v-1024h-1024zM410 1024v205h204v205h205v-205h-205v-205h-204z" />
<glyph unicode="&#xfb;" d="M0 0v1024h205v-819h614v819h205v-1024h-1024zM205 1024v205h205v205h204v-205h205v-205h-205v205h-204v-205h-205z" />
<glyph unicode="&#xfc;" d="M0 0v1024h205v-819h614v819h205v-1024h-1024zM205 1229v205h205v-205h-205zM614 1229v205h205v-205h-205z" />
<glyph unicode="&#xfd;" d="M0 0v1024h205v-819h614v819h205v-1434h-1024v205h819v205h-819zM410 1024v205h204v205h205v-205h-205v-205h-204z" />
<glyph unicode="&#xfe;" d="M0 -410v1434h205v-410h819v-614h-819v-410h-205zM205 205h614v205h-614v-205z" />
<glyph unicode="&#xff;" d="M0 0v1024h205v-819h614v819h205v-1434h-1024v205h819v205h-819zM205 1229v205h205v-205h-205zM614 1229v205h205v-205h-205z" />
<glyph unicode="&#x152;" horiz-adv-x="1843" d="M0 0v1434h1434v-205h-615v-410h410v-205h-410v-409h615v-205h-1434zM205 205h409v1024h-409v-1024z" />
<glyph unicode="&#x153;" horiz-adv-x="1843" d="M0 0v1024h1434v-614h-615v-205h615v-205h-1434zM207 205h407v612l-407 -6v-606zM819 614h410v203l-410 2v-205z" />
<glyph unicode="&#x178;" d="M0 410v614h205v-410h614v410h205v-614h-410v-410h-204v410h-410zM205 1229v205h205v-205h-205zM614 1229v205h205v-205h-205z" />
<glyph unicode="&#x2c6;" horiz-adv-x="1024" d="M0 1024v205h205v205h205v-205h204v-205h-204v205h-205v-205h-205z" />
<glyph unicode="&#x2dc;" horiz-adv-x="1024" d="M0 1024v410h410v-205h204v205h205v-205h-205v-205h-204v205h-205v-205h-205z" />
<glyph unicode="&#x2013;" d="M0 614v205h1024v-205h-1024zM0 614v205h1024v-205h-1024z" />
<glyph unicode="&#x2014;" horiz-adv-x="1843" d="M0 614v205h1434v-205h-1434z" />
<glyph unicode="&#x2018;" horiz-adv-x="819" d="M0 819v615h205v-205h205v-410h-410z" />
<glyph unicode="&#x2019;" horiz-adv-x="819" d="M0 1024v410h410v-615h-205v205h-205z" />
<glyph unicode="&#x201a;" horiz-adv-x="819" d="M0 0v410h410v-615h-205v205h-205z" />
<glyph unicode="&#x201c;" d="M0 819v615h205v-205h205v-410h-410zM614 819v615h205v-205h205v-410h-410z" />
<glyph unicode="&#x201d;" d="M0 1024v410h410v-615h-205v205h-205zM614 1024v410h410v-615h-205v205h-205z" />
<glyph unicode="&#x201e;" d="M0 0v410h410v-615h-205v205h-205zM614 0v410h410v-615h-205v205h-205z" />
<glyph unicode="&#x2022;" horiz-adv-x="1024" d="M0 205v614h614v-614h-614z" />
<glyph unicode="&#x2026;" horiz-adv-x="2048" d="M0 0v410h410v-410h-410zM614 0v410h410v-410h-410zM1229 0v410h409v-410h-409z" />
<glyph unicode="&#x2039;" horiz-adv-x="819" d="M0 410v204h205v205h205v-205h-205v-204h205v-205h-205v205h-205z" />
<glyph unicode="&#x203a;" horiz-adv-x="817" d="M0 205v205h205v204h-205v205h205v-205h205v-204h-205v-205h-205z" />
<glyph unicode="&#x20ac;" horiz-adv-x="1843" d="M0 410v204h205v205h-205v205h205v205h205v205h819v-205h205v-205h-205v205h-819v-205h614v-205h-614v-205h614v-204h-614v-205h819v205h205v-205h-205v-205h-819v205h-205v205h-205z" />
<glyph unicode="&#x2122;" horiz-adv-x="2252" d="M0 1229v205h614v-205h-204v-819h-205v819h-205zM819 410v1024h1024v-1024h-205v819h-204v-819h-205v819h-205v-819h-205z" />
<glyph unicode="&#xe000;" horiz-adv-x="1025" d="M0 1025h1025v-1025h-1025v1025z" />
<glyph unicode="&#xfb01;" horiz-adv-x="1228" d="M0 0v1434h819v-205h-614v-205h205v-205h-205v-819h-205zM614 0v1024h205v-1024h-205z" />
<glyph unicode="&#xfb02;" horiz-adv-x="1228" d="M0 0v1434h819v-1434h-205v1229h-409v-205h205v-205h-205v-819h-205z" />
<glyph unicode="&#xfb03;" horiz-adv-x="2662" d="M2048 0h205v1024h-205v-1024zM2048 1229v205h205v-205h-205zM1024 0v1434h614v-205h-409v-205h409v-205h-409v-819h-205zM0 0v1434h614v-205h-409v-205h409v-205h-409v-819h-205z" />
<glyph unicode="&#xfb04;" horiz-adv-x="2662" d="M2048 0v1434h205v-1434h-205zM1024 0v1434h614v-205h-409v-205h409v-205h-409v-819h-205zM0 0v1434h614v-205h-409v-205h409v-205h-409v-819h-205z" />
</font>
</defs>
</svg>
